<?xml version="1.0" standalone="no"?>
<!DOCTYPE svg PUBLIC "-//W3C//DTD SVG 20010904//EN"
 "http://www.w3.org/TR/2001/REC-SVG-20010904/DTD/svg10.dtd">
<svg version="1.0" xmlns="http://www.w3.org/2000/svg"
 width="266.000000pt" height="263.000000pt" viewBox="0 0 266.000000 263.000000"
 preserveAspectRatio="xMidYMid meet">

<g transform="translate(0.000000,263.000000) scale(0.100000,-0.100000)"
fill="#000000" stroke="none">
<path d="M1043 1971 c-126 -46 -237 -128 -319 -235 -45 -59 -54 -79 -64 -136
-32 -189 79 -405 276 -535 76 -50 96 -55 58 -14 -57 62 -79 115 -79 199 0 47
7 95 19 128 25 74 96 164 168 211 33 23 55 41 49 41 -6 0 -11 19 -11 46 0 25
-4 43 -9 40 -22 -14 -29 81 -8 103 10 11 10 13 0 7 -14 -7 -18 15 -6 27 3 4 7
19 8 34 1 16 5 45 9 66 8 35 7 37 -15 37 -13 -1 -47 -9 -76 -19z"/>
<path d="M1111 1278 c0 -7 4 -22 9 -33 7 -17 9 -15 9 13 1 17 -3 32 -9 32 -5
0 -10 -6 -9 -12z"/>
<path d="M1737 1047 c18 -21 41 -54 52 -75 10 -20 33 -53 50 -72 63 -69 157
-222 175 -285 4 -11 15 -31 26 -45 l20 -25 0 40 c0 172 -127 374 -292 464
l-63 35 32 -37z"/>
<path d="M1293 953 c-16 -6 -17 -38 -1 -63 11 -16 8 -26 -20 -65 -18 -25 -32
-52 -32 -59 0 -7 -7 -19 -15 -26 -8 -7 -15 -18 -15 -25 0 -18 -23 -34 -87 -61
l-58 -24 150 -2 c83 -1 170 -1 194 0 130 7 240 167 186 271 -24 47 -69 61
-187 60 -56 0 -109 -3 -115 -6z"/>
</g>
</svg>
